<?xml version="1.0" encoding="UTF-8"?>
<svg xmlns="http://www.w3.org/2000/svg" xmlns:xlink="http://www.w3.org/1999/xlink" width="375pt" height="374.999991pt" viewBox="0 0 375 374.999991" version="1.2">
<defs>
<clipPath id="clip1">
  <path d="M 0 94 L 116 94 L 116 179.914062 L 0 179.914062 Z M 0 94 "/>
</clipPath>
<clipPath id="clip2">
  <path d="M 251 262 L 374.902344 262 L 374.902344 374.3125 L 251 374.3125 Z M 251 262 "/>
</clipPath>
<clipPath id="clip3">
  <path d="M 250 261.8125 L 374.902344 261.8125 L 374.902344 374.3125 L 250 374.3125 Z M 250 261.8125 "/>
</clipPath>
<clipPath id="clip4">
  <path d="M 161 299.621094 L 178.847656 299.621094 L 178.847656 344.285156 L 161 344.285156 Z M 161 299.621094 "/>
</clipPath>
</defs>
<g id="surface1">
<path style=" stroke:none;fill-rule:nonzero;fill:rgb(0%,85.879517%,100%);fill-opacity:1;" d="M 0 0.785156 L 178.875 0.785156 L 178.875 179.660156 L 0 179.660156 Z M 0 0.785156 "/>
<path style=" stroke:none;fill-rule:nonzero;fill:rgb(0%,85.879517%,100%);fill-opacity:1;" d="M 196.125 195.339844 L 375 195.339844 L 375 374.214844 L 196.125 374.214844 Z M 196.125 195.339844 "/>
<path style=" stroke:none;fill-rule:nonzero;fill:rgb(100%,77.648926%,0%);fill-opacity:1;" d="M 0 195.339844 L 178.875 195.339844 L 178.875 374.214844 L 0 374.214844 Z M 0 195.339844 "/>
<g clip-path="url(#clip1)" clip-rule="nonzero">
<path style=" stroke:none;fill-rule:nonzero;fill:rgb(100%,100%,100%);fill-opacity:1;" d="M -15.984375 195.082031 L -14.976562 195.082031 C -9.714844 194.523438 -4.003906 189.941406 1.144531 182.117188 L 2.488281 179.773438 C 11.445312 164.910156 12.117188 163.679688 44.25 163.679688 C 76.382812 163.679688 77.050781 164.910156 86.121094 179.773438 L 87.578125 182.117188 C 92.613281 189.941406 98.324219 194.636719 103.585938 195.082031 C 106.722656 195.417969 109.519531 194.300781 111.757812 191.953125 C 121.5 181.785156 112.878906 126.355469 97.765625 102.214844 C 94.070312 96.292969 75.375 93.386719 71.679688 94.617188 C 69.550781 95.398438 67.535156 96.515625 65.410156 97.632812 C 60.484375 100.203125 54.773438 103.332031 44.25 103.332031 C 33.726562 103.332031 28.015625 100.316406 23.089844 97.523438 C 20.960938 96.40625 19.058594 95.289062 16.820312 94.503906 C 13.238281 93.164062 -5.570312 96.070312 -9.265625 102.105469 C -24.269531 126.355469 -33 181.671875 -23.148438 191.839844 C -21.132812 193.964844 -18.671875 195.082031 -15.984375 195.082031 Z M 82.316406 133.507812 C 82.316406 134.175781 81.867188 134.625 81.308594 134.625 L 74.589844 134.625 C 73.917969 134.625 73.359375 134.066406 73.359375 133.507812 L 73.359375 126.800781 C 73.359375 126.464844 73.582031 126.019531 73.917969 125.90625 L 77.277344 123.785156 C 77.613281 123.5625 78.171875 123.5625 78.507812 123.785156 L 81.867188 125.90625 C 82.203125 126.132812 82.316406 126.464844 82.316406 126.800781 Z M 84.664062 115.625 L 91.382812 115.625 C 92.054688 115.625 92.503906 116.074219 92.503906 116.742188 L 92.503906 123.449219 C 92.503906 124.121094 92.054688 124.566406 91.382812 124.566406 L 84.664062 124.566406 C 84.328125 124.566406 83.882812 124.34375 83.769531 124.007812 L 81.644531 120.65625 C 81.417969 120.320312 81.417969 119.871094 81.644531 119.425781 L 83.769531 116.074219 C 83.882812 115.851562 84.21875 115.625 84.664062 115.625 Z M 73.359375 106.6875 C 73.359375 106.015625 73.917969 105.570312 74.589844 105.570312 L 81.308594 105.570312 C 81.980469 105.570312 82.425781 106.128906 82.425781 106.6875 L 82.425781 113.390625 C 82.425781 113.726562 82.203125 114.171875 81.867188 114.285156 L 78.507812 116.410156 C 78.285156 116.519531 78.058594 116.632812 77.949219 116.632812 C 77.835938 116.632812 77.5 116.519531 77.386719 116.410156 L 74.03125 114.285156 C 73.582031 114.171875 73.359375 113.726562 73.359375 113.390625 Z M 63.28125 116.742188 C 63.28125 116.074219 63.953125 115.625 64.511719 115.625 L 71.230469 115.625 C 71.566406 115.625 72.015625 115.851562 72.125 116.183594 L 74.253906 119.539062 C 74.476562 119.871094 74.476562 120.320312 74.253906 120.765625 L 72.125 124.121094 C 71.902344 124.453125 71.566406 124.679688 71.230469 124.679688 L 64.511719 124.679688 C 63.839844 124.679688 63.28125 124.230469 63.28125 123.5625 Z M 53.988281 118.53125 C 54.886719 117.636719 56.339844 117.636719 57.125 118.53125 C 57.570312 118.980469 57.796875 119.539062 57.796875 120.097656 C 57.796875 120.65625 57.570312 121.214844 57.125 121.660156 C 56.675781 122.109375 56.117188 122.332031 55.558594 122.332031 C 54.996094 122.332031 54.4375 122.109375 53.988281 121.660156 C 53.542969 121.214844 53.316406 120.65625 53.316406 120.097656 C 53.316406 119.539062 53.542969 118.867188 53.988281 118.53125 Z M 60.929688 132.5 C 65.855469 132.5 69.886719 136.523438 69.886719 141.441406 C 69.886719 146.359375 65.855469 150.382812 60.929688 150.382812 C 56.003906 150.382812 51.972656 146.359375 51.972656 141.441406 C 51.972656 136.523438 56.003906 132.5 60.929688 132.5 Z M 44.25 114.507812 C 47.382812 114.507812 49.847656 117.078125 49.847656 120.097656 C 49.847656 123.226562 47.273438 125.683594 44.25 125.683594 C 41.113281 125.683594 38.652344 123.113281 38.652344 120.097656 C 38.652344 116.96875 41.113281 114.507812 44.25 114.507812 Z M 31.484375 118.53125 C 32.382812 117.636719 33.835938 117.636719 34.621094 118.53125 C 35.070312 118.980469 35.292969 119.539062 35.292969 120.097656 C 35.292969 120.65625 35.070312 121.214844 34.621094 121.660156 C 34.285156 122.109375 33.613281 122.332031 33.054688 122.332031 C 32.492188 122.332031 31.933594 122.109375 31.484375 121.660156 C 31.039062 121.214844 30.816406 120.65625 30.816406 120.097656 C 30.816406 119.539062 31.039062 118.867188 31.484375 118.53125 Z M 22.976562 136.859375 L 22.976562 130.152344 C 22.976562 129.484375 23.539062 129.035156 24.097656 129.035156 L 30.925781 129.035156 C 31.597656 129.035156 31.933594 129.484375 31.933594 130.152344 L 31.933594 136.859375 L 38.652344 136.859375 C 39.324219 136.859375 39.769531 137.304688 39.769531 137.976562 L 39.769531 144.683594 C 39.769531 145.351562 39.324219 145.800781 38.652344 145.800781 L 31.933594 145.800781 L 31.933594 152.617188 C 31.933594 153.285156 31.484375 153.621094 30.925781 153.621094 L 24.097656 153.621094 C 23.425781 153.621094 22.976562 153.175781 22.976562 152.617188 L 22.976562 145.800781 L 16.261719 145.800781 C 15.589844 145.800781 15.140625 145.242188 15.140625 144.683594 L 15.140625 137.976562 C 15.140625 137.304688 15.699219 136.859375 16.261719 136.859375 Z M 7.304688 111.15625 C 12.230469 111.15625 16.261719 115.179688 16.261719 120.097656 C 16.261719 125.011719 12.230469 129.035156 7.304688 129.035156 C 2.378906 129.035156 -1.652344 125.011719 -1.652344 120.097656 C -1.652344 115.179688 2.378906 111.15625 7.304688 111.15625 Z M 7.304688 111.15625 "/>
</g>
<g clip-path="url(#clip2)" clip-rule="nonzero">
<path style=" stroke:none;fill-rule:nonzero;fill:rgb(100%,100%,100%);fill-opacity:1;" d="M 299.855469 382.878906 C 299.800781 382.878906 299.746094 382.871094 299.695312 382.851562 C 299.585938 382.808594 299.5 382.722656 299.453125 382.617188 L 285.105469 349.648438 C 283.496094 349.921875 279.269531 351.167969 274.96875 356.863281 C 273.714844 358.859375 271.914062 360.425781 269.78125 361.355469 C 268.324219 361.992188 266.777344 362.3125 265.175781 362.3125 C 259.851562 362.3125 254.902344 358.84375 252.566406 353.480469 C 249.464844 346.34375 252.132812 338.269531 258.515625 335.480469 C 259.964844 334.84375 261.511719 334.523438 263.109375 334.523438 C 263.40625 334.523438 263.707031 334.535156 264.003906 334.558594 L 264.011719 334.558594 L 264.066406 334.5625 C 264.398438 334.585938 264.753906 334.632812 265.121094 334.695312 C 266.089844 334.796875 267.066406 334.855469 268 334.855469 C 273.332031 334.855469 276.285156 333.121094 277.496094 332.179688 L 263.15625 299.230469 C 263.0625 299.003906 263.164062 298.746094 263.386719 298.648438 L 296.4375 284.207031 C 296.492188 284.179688 296.554688 284.167969 296.613281 284.167969 C 296.722656 284.167969 296.828125 284.207031 296.910156 284.28125 C 297.085938 284.445312 301.238281 288.347656 300.1875 298.019531 C 300.121094 298.414062 300.082031 298.742188 300.058594 299.039062 L 300.058594 299.066406 C 299.925781 300.84375 300.210938 302.554688 300.90625 304.160156 C 302.714844 308.3125 306.933594 310.890625 311.917969 310.890625 C 313.894531 310.890625 315.84375 310.476562 317.707031 309.664062 C 320.949219 308.246094 323.507812 305.789062 324.902344 302.738281 C 326.289062 299.707031 326.367188 296.457031 325.117188 293.582031 C 324.261719 291.609375 322.8125 289.941406 320.9375 288.757812 C 313.3125 282.976562 313.277344 277.371094 313.28125 277.136719 C 313.285156 276.960938 313.386719 276.804688 313.546875 276.734375 L 346.617188 262.285156 C 346.671875 262.257812 346.734375 262.246094 346.792969 262.246094 C 346.847656 262.246094 346.902344 262.257812 346.953125 262.277344 C 347.0625 262.320312 347.152344 262.40625 347.199219 262.515625 L 361.496094 295.363281 C 362.671875 295.257812 367.285156 294.441406 372.085938 288.089844 C 373.335938 286.09375 375.140625 284.527344 377.273438 283.59375 C 378.730469 282.957031 380.28125 282.636719 381.878906 282.636719 C 387.203125 282.636719 392.152344 286.105469 394.488281 291.472656 C 397.59375 298.605469 394.921875 306.683594 388.539062 309.472656 C 387.078125 310.109375 385.53125 310.429688 383.933594 310.429688 C 383.628906 310.429688 383.316406 310.417969 383.011719 310.394531 L 382.988281 310.390625 C 382.644531 310.363281 382.289062 310.316406 381.933594 310.257812 C 380.964844 310.152344 379.984375 310.097656 379.050781 310.097656 C 373.019531 310.097656 369.980469 312.382812 369.203125 313.066406 L 383.492188 345.898438 C 383.589844 346.121094 383.488281 346.382812 383.265625 346.480469 L 350.210938 360.921875 C 350.152344 360.945312 350.09375 360.960938 350.035156 360.960938 C 349.925781 360.960938 349.820312 360.917969 349.738281 360.84375 C 349.558594 360.683594 345.414062 356.777344 346.460938 347.109375 C 346.519531 346.753906 346.5625 346.433594 346.589844 346.125 L 346.589844 346.085938 C 346.726562 344.300781 346.445312 342.582031 345.742188 340.972656 C 343.933594 336.820312 339.714844 334.238281 334.730469 334.238281 C 332.753906 334.238281 330.804688 334.648438 328.941406 335.464844 C 322.265625 338.382812 318.945312 345.597656 321.535156 351.546875 C 322.394531 353.519531 323.835938 355.1875 325.710938 356.371094 C 333.335938 362.148438 333.371094 367.761719 333.371094 367.996094 C 333.367188 368.171875 333.265625 368.328125 333.101562 368.398438 L 300.035156 382.84375 C 299.976562 382.867188 299.917969 382.878906 299.855469 382.878906 "/>
</g>
<g clip-path="url(#clip3)" clip-rule="nonzero">
<path style=" stroke:none;fill-rule:nonzero;fill:rgb(21.958923%,71.369934%,100%);fill-opacity:1;" d="M 346.792969 261.804688 C 346.671875 261.804688 346.550781 261.828125 346.441406 261.878906 L 313.371094 276.328125 C 313.050781 276.46875 312.84375 276.78125 312.839844 277.132812 C 312.835938 277.375 312.871094 283.195312 320.636719 289.089844 L 320.699219 289.132812 C 322.503906 290.269531 323.890625 291.867188 324.710938 293.757812 C 325.910156 296.515625 325.835938 299.640625 324.5 302.554688 C 323.148438 305.503906 320.675781 307.886719 317.53125 309.257812 C 315.722656 310.050781 313.835938 310.449219 311.917969 310.449219 C 307.113281 310.449219 303.050781 307.972656 301.3125 303.980469 C 300.648438 302.449219 300.371094 300.808594 300.5 299.109375 L 300.5 299.066406 C 300.519531 298.785156 300.558594 298.476562 300.621094 298.121094 L 300.628906 298.066406 C 301.703125 288.175781 297.390625 284.125 297.207031 283.957031 C 297.042969 283.804688 296.828125 283.726562 296.613281 283.726562 C 296.492188 283.726562 296.375 283.75 296.261719 283.800781 L 263.210938 298.242188 C 262.761719 298.4375 262.558594 298.957031 262.753906 299.40625 L 276.953125 332.03125 C 275.722656 332.894531 272.867188 334.410156 268 334.410156 C 267.09375 334.410156 266.140625 334.359375 265.171875 334.253906 C 264.804688 334.191406 264.449219 334.148438 264.117188 334.121094 L 264.019531 334.117188 C 263.71875 334.09375 263.410156 334.082031 263.109375 334.082031 C 261.449219 334.082031 259.84375 334.414062 258.339844 335.074219 C 251.730469 337.960938 248.960938 346.296875 252.164062 353.65625 C 254.566406 359.183594 259.675781 362.757812 265.175781 362.757812 C 266.835938 362.757812 268.445312 362.421875 269.957031 361.761719 C 272.160156 360.800781 274.023438 359.1875 275.34375 357.097656 C 279.273438 351.914062 283.097656 350.523438 284.839844 350.148438 L 299.046875 382.792969 C 299.140625 383.007812 299.316406 383.175781 299.535156 383.261719 C 299.636719 383.304688 299.746094 383.324219 299.855469 383.324219 C 299.976562 383.324219 300.097656 383.300781 300.210938 383.25 L 333.28125 368.804688 C 333.601562 368.664062 333.808594 368.351562 333.8125 368 C 333.8125 367.753906 333.777344 361.929688 326.007812 356.039062 L 325.949219 355.996094 C 324.148438 354.859375 322.761719 353.261719 321.941406 351.371094 C 319.449219 345.644531 322.667969 338.691406 329.117188 335.871094 C 330.929688 335.082031 332.816406 334.679688 334.730469 334.679688 C 339.539062 334.679688 343.601562 337.160156 345.339844 341.148438 C 346.007812 342.691406 346.28125 344.339844 346.148438 346.050781 L 346.144531 346.105469 C 346.121094 346.394531 346.082031 346.699219 346.03125 347.007812 L 346.023438 347.0625 C 344.949219 356.953125 349.253906 361.003906 349.4375 361.171875 C 349.605469 361.324219 349.820312 361.402344 350.035156 361.402344 C 350.152344 361.402344 350.273438 361.378906 350.386719 361.328125 L 383.441406 346.886719 C 383.886719 346.691406 384.09375 346.167969 383.898438 345.722656 L 369.742188 313.195312 C 370.75 312.394531 373.671875 310.539062 379.050781 310.539062 C 379.960938 310.539062 380.917969 310.59375 381.886719 310.699219 C 382.242188 310.757812 382.597656 310.804688 382.941406 310.832031 L 382.976562 310.835938 C 383.296875 310.859375 383.617188 310.871094 383.933594 310.871094 C 385.589844 310.871094 387.199219 310.539062 388.714844 309.878906 C 395.324219 306.988281 398.097656 298.652344 394.894531 291.296875 C 392.488281 285.765625 387.378906 282.195312 381.878906 282.195312 C 380.21875 282.195312 378.609375 282.527344 377.097656 283.191406 C 374.890625 284.152344 373.03125 285.765625 371.710938 287.851562 C 367.429688 293.507812 363.238281 294.648438 361.769531 294.878906 L 347.605469 262.335938 C 347.507812 262.121094 347.335938 261.953125 347.117188 261.867188 C 347.011719 261.824219 346.902344 261.804688 346.792969 261.804688 Z M 346.792969 262.691406 L 361.214844 295.820312 L 361.21875 295.820312 C 361.371094 295.820312 366.839844 295.769531 372.4375 288.359375 C 373.628906 286.460938 375.328125 284.929688 377.449219 284 C 378.882812 283.375 380.382812 283.078125 381.878906 283.078125 C 386.839844 283.078125 391.769531 286.332031 394.082031 291.648438 C 397.097656 298.570312 394.535156 306.367188 388.359375 309.066406 C 386.929688 309.691406 385.429688 309.988281 383.933594 309.988281 C 383.636719 309.988281 383.34375 309.976562 383.046875 309.953125 L 383.042969 309.949219 C 382.695312 309.925781 382.351562 309.878906 382.007812 309.820312 C 380.953125 309.707031 379.96875 309.65625 379.050781 309.65625 C 371.675781 309.65625 368.675781 312.960938 368.675781 312.960938 L 383.085938 346.074219 L 350.035156 360.515625 C 350.035156 360.515625 345.863281 356.714844 346.902344 347.15625 C 346.960938 346.8125 347.003906 346.464844 347.03125 346.121094 L 347.03125 346.117188 C 347.171875 344.328125 346.894531 342.511719 346.148438 340.796875 C 344.222656 336.367188 339.6875 333.796875 334.730469 333.796875 C 332.761719 333.796875 330.730469 334.199219 328.765625 335.058594 C 321.855469 338.078125 318.4375 345.542969 321.128906 351.726562 C 322.054688 353.855469 323.585938 355.554688 325.476562 356.746094 C 332.980469 362.433594 332.925781 367.992188 332.925781 367.992188 L 299.855469 382.4375 L 285.375 349.164062 C 283.929688 349.335938 279.320312 350.367188 274.617188 356.59375 C 273.425781 358.488281 271.730469 360.023438 269.605469 360.949219 C 268.171875 361.574219 266.671875 361.871094 265.175781 361.871094 C 260.21875 361.871094 255.285156 358.617188 252.972656 353.300781 C 249.960938 346.378906 252.519531 338.582031 258.695312 335.886719 C 260.125 335.261719 261.617188 334.964844 263.109375 334.964844 C 263.410156 334.964844 263.710938 334.976562 264.007812 335 L 264.011719 335 C 264.359375 335.027344 264.703125 335.074219 265.046875 335.128906 C 266.101562 335.246094 267.085938 335.296875 268 335.296875 C 273.964844 335.296875 277.066406 333.136719 278.039062 332.308594 L 263.5625 299.054688 L 296.613281 284.613281 C 296.613281 284.613281 300.785156 288.414062 299.75 297.972656 C 299.691406 298.316406 299.644531 298.660156 299.621094 299.007812 L 299.621094 299.011719 C 299.480469 300.804688 299.757812 302.617188 300.503906 304.335938 C 302.429688 308.761719 306.960938 311.335938 311.917969 311.335938 C 313.886719 311.335938 315.921875 310.929688 317.886719 310.070312 C 324.792969 307.050781 328.214844 299.589844 325.519531 293.40625 C 324.597656 291.273438 323.0625 289.574219 321.171875 288.382812 C 313.671875 282.691406 313.722656 277.140625 313.722656 277.140625 L 346.792969 262.691406 "/>
</g>
<path style=" stroke:none;fill-rule:nonzero;fill:rgb(19.999695%,21.179199%,32.159424%);fill-opacity:1;" d="M 58.421875 283.925781 L 41.171875 278.746094 L 29.039062 287.257812 L 30.367188 289.746094 L 41.945312 284.101562 L 58.421875 293.445312 L 58.421875 283.925781 "/>
<path style=" stroke:none;fill-rule:nonzero;fill:rgb(19.999695%,21.179199%,32.159424%);fill-opacity:1;" d="M 58.421875 301.828125 L 41.171875 307.011719 L 29.039062 298.5 L 30.367188 296.011719 L 41.945312 301.65625 L 58.421875 292.3125 L 58.421875 301.828125 "/>
<path style=" stroke:none;fill-rule:nonzero;fill:rgb(100%,100%,100%);fill-opacity:1;" d="M 82.222656 302.917969 L 62.261719 302.917969 C 56.652344 302.917969 52.105469 298.363281 52.105469 292.742188 C 52.105469 287.121094 56.652344 282.566406 62.261719 282.566406 L 87.097656 282.566406 L 87.097656 298.03125 C 87.097656 300.730469 84.914062 302.917969 82.222656 302.917969 "/>
<path style=" stroke:none;fill-rule:nonzero;fill:rgb(100%,100%,100%);fill-opacity:1;" d="M 130.503906 324.664062 L 118.6875 254.863281 C 117.871094 250.03125 113.296875 246.78125 108.476562 247.597656 L 108.199219 247.644531 C 105.304688 248.136719 102.742188 249.800781 101.109375 252.246094 L 73 294.375 L 84.402344 302.046875 L 107.027344 268.285156 L 116.960938 326.964844 L 130.503906 324.664062 "/>
<path style=" stroke:none;fill-rule:nonzero;fill:rgb(100%,100%,100%);fill-opacity:1;" d="M 162.125 329.800781 L 123.042969 329.800781 C 118.738281 329.800781 115.246094 326.304688 115.246094 321.988281 L 115.246094 316.835938 L 162.125 316.835938 L 162.125 329.800781 "/>
<g clip-path="url(#clip4)" clip-rule="nonzero">
<path style=" stroke:none;fill-rule:nonzero;fill:rgb(19.999695%,21.179199%,32.159424%);fill-opacity:1;" d="M 178.847656 344.277344 C 169.023438 344.277344 161.0625 336.300781 161.0625 326.457031 L 161.0625 317.753906 C 161.0625 307.914062 169.023438 299.933594 178.847656 299.933594 L 178.847656 344.277344 "/>
</g>
<path style=" stroke:none;fill-rule:nonzero;fill:rgb(19.999695%,21.179199%,32.159424%);fill-opacity:1;" d="M 128.71875 322.480469 C 128.71875 325.121094 126.582031 327.261719 123.949219 327.261719 C 121.3125 327.261719 119.175781 325.121094 119.175781 322.480469 C 119.175781 319.835938 121.3125 317.699219 123.949219 317.699219 C 126.582031 317.699219 128.71875 319.835938 128.71875 322.480469 "/>
<path style=" stroke:none;fill-rule:nonzero;fill:rgb(19.999695%,21.179199%,32.159424%);fill-opacity:1;" d="M 115.246094 254.890625 C 115.246094 257.414062 113.207031 259.457031 110.695312 259.457031 C 108.179688 259.457031 106.140625 257.414062 106.140625 254.890625 C 106.140625 252.375 108.179688 250.332031 110.695312 250.332031 C 113.207031 250.332031 115.246094 252.375 115.246094 254.890625 "/>
<path style=" stroke:none;fill-rule:nonzero;fill:rgb(19.999695%,21.179199%,32.159424%);fill-opacity:1;" d="M 85.285156 293.445312 C 85.285156 295.792969 83.386719 297.695312 81.042969 297.695312 C 78.699219 297.695312 76.800781 295.792969 76.800781 293.445312 C 76.800781 291.097656 78.699219 289.195312 81.042969 289.195312 C 83.386719 289.195312 85.285156 291.097656 85.285156 293.445312 "/>
<path style=" stroke:none;fill-rule:nonzero;fill:rgb(100%,100%,100%);fill-opacity:1;" d="M 84.042969 293.445312 C 84.042969 295.105469 82.699219 296.449219 81.042969 296.449219 C 79.386719 296.449219 78.042969 295.105469 78.042969 293.445312 C 78.042969 291.785156 79.386719 290.441406 81.042969 290.441406 C 82.699219 290.441406 84.042969 291.785156 84.042969 293.445312 "/>
<path style=" stroke:none;fill-rule:nonzero;fill:rgb(100%,100%,100%);fill-opacity:1;" d="M 113.691406 254.890625 C 113.691406 256.554688 112.347656 257.898438 110.695312 257.898438 C 109.035156 257.898438 107.695312 256.554688 107.695312 254.890625 C 107.695312 253.234375 109.035156 251.886719 110.695312 251.886719 C 112.347656 251.886719 113.691406 253.234375 113.691406 254.890625 "/>
<path style=" stroke:none;fill-rule:nonzero;fill:rgb(100%,100%,100%);fill-opacity:1;" d="M 126.949219 322.480469 C 126.949219 324.136719 125.605469 325.484375 123.949219 325.484375 C 122.289062 325.484375 120.949219 324.136719 120.949219 322.480469 C 120.949219 320.820312 122.289062 319.472656 123.949219 319.472656 C 125.605469 319.472656 126.949219 320.820312 126.949219 322.480469 "/>
</g>
</svg>
